<svg width="112" height="38" viewBox="0 0 112 38" fill="none" xmlns="http://www.w3.org/2000/svg">
<path d="M24.0659 22.637L28.8247 17.8783C28.8247 14.6151 28.0089 11.4879 26.5133 8.7686L15.4321 19.0339V36.0975H17.5396C24.9497 36.0975 31.0001 30.1151 31.0001 22.637H24.0659Z" fill="white"/>
<path d="M6.93421 15.363L2.17544 20.1217C2.17544 23.3849 2.99123 26.5121 4.48684 29.2314L15.568 18.966V1.90244H13.4605C6.05044 1.90244 0 7.88489 0 15.363H6.93421Z" fill="white"/>
<path d="M47.7495 15.1172L44.9956 15.0073H42.7544L42.813 14.1943C43.2573 14.1943 43.5601 14.1357 43.7212 14.0186C44.0093 13.7988 44.1533 13.4375 44.1533 12.9346V6.0498C44.1533 5.27344 44.002 4.82422 43.6992 4.70215C43.6113 4.66309 43.4673 4.64355 43.2671 4.64355C43.0669 4.64355 42.9009 4.67041 42.769 4.72412L42.835 3.79395H44.9956C45.3276 3.78418 45.6499 3.77197 45.9624 3.75732C46.8022 3.7085 47.481 3.68408 47.9985 3.68408C48.521 3.68408 49.019 3.74756 49.4927 3.87451C49.9712 3.99658 50.3691 4.17236 50.6865 4.40186C51.3262 4.86572 51.646 5.50781 51.646 6.32812C51.646 6.97754 51.4531 7.54395 51.0674 8.02734C50.75 8.42285 50.3228 8.72803 49.7856 8.94287C50.6987 9.02588 51.3994 9.33105 51.8877 9.8584C52.3271 10.3271 52.5469 10.9106 52.5469 11.6089C52.5469 12.6294 52.1367 13.4595 51.3164 14.0991C50.4424 14.7778 49.2534 15.1172 47.7495 15.1172ZM49.8955 6.47461C49.8955 5.18066 49.0459 4.53369 47.3467 4.53369C46.7852 4.53369 46.4019 4.55566 46.1968 4.59961L45.7427 4.6875V8.73779H47.874C48.9287 8.73779 49.5659 8.31299 49.7856 7.46338C49.8589 7.18018 49.8955 6.85059 49.8955 6.47461ZM45.7427 9.5874L45.7573 13.2715C45.7573 13.6816 45.9062 13.9526 46.2041 14.0845C46.4873 14.2065 46.9902 14.2676 47.7129 14.2676C48.4355 14.2676 48.9775 14.2065 49.3389 14.0845C49.7051 13.9575 49.9932 13.7817 50.2031 13.5571C50.5791 13.1616 50.7671 12.5537 50.7671 11.7334C50.7671 10.9131 50.5498 10.3516 50.1152 10.0488C49.666 9.73633 48.8237 9.58008 47.5884 9.58008L45.7427 9.5874ZM56.6338 14.0259C56.707 14.1138 56.8022 14.1699 56.9194 14.1943C57.0415 14.2139 57.293 14.2236 57.6738 14.2236C58.0547 14.2236 58.3525 14.1943 58.5674 14.1357L58.5161 15H53.7993L53.9019 14.2236C54.3315 14.2236 54.6074 14.1479 54.7295 13.9966C54.9492 13.7231 55.0591 13.2397 55.0591 12.5464V9.01611C55.0591 8.35693 54.9907 7.94922 54.854 7.79297C54.7026 7.61719 54.3706 7.51465 53.8579 7.48535L53.9604 6.54785L56.5898 6.15234C56.541 6.50879 56.5166 6.9165 56.5166 7.37549C57.0293 6.88721 57.6299 6.51855 58.3184 6.26953C58.5625 6.18652 58.7944 6.14502 59.0142 6.14502C59.9517 6.14502 60.4204 6.5625 60.4204 7.39746C60.4204 7.89062 60.3496 8.42041 60.208 8.98682C60.1982 9.02588 60.1909 9.05273 60.186 9.06738C60.1812 9.07715 60.1787 9.08447 60.1787 9.08936H58.9556L58.9995 8.74512L59.0288 8.45215C59.0386 8.35938 59.0435 8.26172 59.0435 8.15918C59.0435 8.05664 59.0337 7.9541 59.0142 7.85156C58.9995 7.74902 58.9678 7.66357 58.9189 7.59521C58.8311 7.46338 58.6821 7.39746 58.4722 7.39746C58.2622 7.39746 58.062 7.4292 57.8716 7.49268C57.686 7.55615 57.5054 7.63184 57.3296 7.71973C56.9731 7.90527 56.6973 8.0957 56.502 8.29102L56.5166 8.28369L56.5239 13.1982C56.5239 13.6621 56.5605 13.938 56.6338 14.0259ZM65.6865 13.8574C66.6533 13.7939 67.5054 13.562 68.2427 13.1616L68.5649 13.7769C67.8276 14.3872 66.9878 14.8047 66.0454 15.0293C65.7622 15.0928 65.5034 15.1245 65.269 15.1245C63.4282 15.1245 62.2686 14.3115 61.79 12.6855C61.6338 12.1631 61.5557 11.5552 61.5557 10.8618C61.5557 10.1636 61.668 9.52148 61.8926 8.93555C62.1221 8.34961 62.4224 7.85156 62.7935 7.44141C63.1694 7.02637 63.5991 6.70654 64.0825 6.48193C64.5659 6.25732 65.0664 6.14502 65.584 6.14502C67.6592 6.14502 68.6968 7.33154 68.6968 9.70459V9.77783C68.6968 10.3979 68.6235 10.708 68.4771 10.708H63.0864C63.0864 11.7285 63.311 12.5049 63.7603 13.0371C64.2144 13.5693 64.8564 13.8428 65.6865 13.8574ZM67.0269 9.77051C67.0317 9.66797 67.0342 9.58984 67.0342 9.53613V9.29443C67.0342 8.14697 66.7168 7.44141 66.082 7.17773C65.8525 7.08008 65.606 7.03125 65.3423 7.03125C65.0835 7.03125 64.8638 7.07031 64.6831 7.14844C64.5024 7.22656 64.3315 7.33398 64.1704 7.4707C64.0142 7.60742 63.8701 7.76855 63.7383 7.9541C63.6064 8.13477 63.4917 8.33496 63.394 8.55469C63.189 9.00879 63.0864 9.47266 63.0864 9.94629L67.0269 9.77051ZM76.9878 8.62061L76.8706 12.5098C76.8706 13.0322 77.0293 13.4082 77.3467 13.6377C77.5664 13.7988 77.8472 13.8794 78.189 13.8794C78.1694 14.1284 78.0693 14.353 77.8887 14.5532C77.5713 14.9048 77.3125 15.1074 77.1123 15.1611C76.8096 15.1611 76.5239 15.0586 76.2554 14.8535C75.9917 14.6484 75.7866 14.3481 75.6401 13.9526C75.0835 14.48 74.4023 14.8535 73.5967 15.0732C73.3721 15.1367 73.1084 15.1685 72.8057 15.1685C72.5078 15.1685 72.188 15.1123 71.8462 15C71.5093 14.8828 71.2261 14.7192 70.9966 14.5093C70.5327 14.0845 70.3008 13.5059 70.3008 12.7734C70.3008 11.8848 70.7988 11.1938 71.7949 10.7007C72.7227 10.2417 73.9434 10.0122 75.457 10.0122H75.5376C75.5376 9.70459 75.5327 9.4043 75.5229 9.11133L75.5156 8.81836C75.4912 8.22754 75.2788 7.77832 74.8784 7.4707C74.561 7.22656 74.1704 7.10449 73.7065 7.10449C73.2427 7.10449 72.8691 7.229 72.5859 7.47803C72.3027 7.72217 72.1611 8.07617 72.1611 8.54004C72.1611 8.71094 72.1807 8.89404 72.2197 9.08936H70.9087L70.8574 9.07471C70.8428 8.99658 70.8281 8.91357 70.8135 8.82568C70.7695 8.61572 70.7329 8.39844 70.7036 8.17383C70.6792 7.94434 70.667 7.79297 70.667 7.71973C70.667 7.6123 70.6865 7.53418 70.7256 7.48535C71.9902 6.5918 73.228 6.14502 74.439 6.14502C75.6206 6.14502 76.3994 6.57471 76.7754 7.43408C76.917 7.75146 76.9878 8.14697 76.9878 8.62061ZM75.457 12.7954C75.4912 12.1802 75.5156 11.521 75.5303 10.8179C75.4766 10.7983 75.313 10.7886 75.0396 10.7886C74.771 10.7886 74.4292 10.8325 74.0142 10.9204C73.604 11.0034 73.2451 11.1255 72.9375 11.2866C72.2832 11.6333 71.9561 12.0972 71.9561 12.6782C71.9561 13.0835 72.0879 13.4229 72.3516 13.6963C72.6201 13.9697 72.9668 14.1064 73.3916 14.1064C73.9189 14.1064 74.4609 13.8696 75.0176 13.396C75.1836 13.2544 75.3301 13.1055 75.457 12.9492V12.7954ZM85.374 13.2715C85.9746 13.9062 86.4336 14.2236 86.751 14.2236C86.9316 14.2236 87.0952 14.1895 87.2417 14.1211L87.1685 15H85.6523C85.0029 15 84.1924 14.4116 83.2207 13.2349C82.7324 12.6245 82.3882 12.1802 82.188 11.9019L81.6826 11.2061C81.5459 11.0254 81.4214 10.8716 81.3091 10.7446V13.2715C81.3091 13.6865 81.3359 13.9404 81.3896 14.0332C81.4482 14.1211 81.5093 14.1748 81.5728 14.1943C81.6411 14.2139 81.7168 14.2236 81.7998 14.2236C82.0391 14.2236 82.2319 14.1895 82.3784 14.1211L82.2686 15H78.687L78.8042 14.2236C79.2388 14.2236 79.5244 14.1113 79.6611 13.8867C79.793 13.6865 79.8589 13.2935 79.8589 12.7075V5.00244C79.8589 4.49951 79.8003 4.17969 79.6831 4.04297C79.5659 3.90625 79.4023 3.82813 79.1924 3.80859C78.9824 3.78906 78.7383 3.7793 78.46 3.7793L78.5479 2.94434L81.4849 2.51221C81.3677 3.0249 81.3091 4.27002 81.3091 6.24756V10.1074C82.4077 9.19434 83.0962 8.59863 83.3745 8.32031C83.8384 7.84668 84.0703 7.54883 84.0703 7.42676C84.0703 7.29492 84.0264 7.21436 83.9385 7.18506C83.7871 7.12646 83.5137 7.09717 83.1182 7.09717L83.2061 6.28418H87.0366L86.9634 7.09717H86.7437C86.3628 7.09717 85.9087 7.34375 85.3813 7.83691C84.6929 8.39844 84.1802 8.82812 83.8433 9.12598C83.1792 9.7168 82.7642 10.0928 82.5981 10.2539C82.603 10.2637 82.6445 10.3149 82.7227 10.4077C83.7236 11.5356 84.3608 12.2412 84.6343 12.5244L85.374 13.2715ZM47.6177 32.4399L47.9399 33.0625C47.4565 33.5117 46.8389 33.8291 46.0869 34.0146C45.8477 34.0781 45.5962 34.1099 45.3325 34.1099C45.0688 34.1099 44.8247 34.0806 44.6001 34.022C44.3804 33.9634 44.1973 33.8633 44.0508 33.7217C43.7676 33.4482 43.6113 32.9624 43.582 32.2642V26.4048H42.3076L42.3662 25.6577C43.0498 25.5356 43.5234 25.2793 43.7871 24.8887C43.9971 24.5762 44.1753 23.9585 44.3218 23.0356H45.1201V25.2842H47.8228V26.4048H45.0615V31.4146C45.0615 32.0249 45.1494 32.4277 45.3252 32.623C45.4717 32.7842 45.7769 32.8647 46.2407 32.8647C46.7046 32.8647 47.1636 32.7231 47.6177 32.4399ZM51.2798 26.4634C52.3198 25.5845 53.3599 25.145 54.3999 25.145C55.4839 25.145 56.2041 25.6309 56.5605 26.6025C56.6777 26.9297 56.7363 27.3008 56.7363 27.7158C56.7363 28.1309 56.729 28.5337 56.7144 28.9243C56.6997 29.3149 56.6826 29.708 56.6631 30.1035C56.5801 31.7783 56.5581 32.689 56.5972 32.8354C56.6362 32.9771 56.6777 33.0723 56.7217 33.1211C56.834 33.248 57.1733 33.2554 57.7397 33.1431L57.6519 34H53.8945L53.9971 33.2236C54.5684 33.2236 54.9175 33.0186 55.0444 32.6084C55.1665 32.1738 55.2324 31.627 55.2422 30.9678C55.2568 30.3086 55.2642 29.813 55.2642 29.481C55.2642 29.144 55.2593 28.8755 55.2495 28.6753C55.2446 28.4702 55.2275 28.2676 55.1982 28.0674C55.1738 27.8623 55.1299 27.6646 55.0664 27.4741C55.0078 27.2788 54.9248 27.1079 54.8174 26.9614C54.583 26.6343 54.251 26.4707 53.8213 26.4707C53.123 26.4707 52.4297 26.6807 51.7412 27.1006L51.2798 27.3716V32.4766C51.2798 32.7744 51.3164 32.9648 51.3896 33.0479C51.4971 33.165 51.6167 33.2236 51.7485 33.2236C52.1099 33.2236 52.3931 33.1968 52.5981 33.1431L52.481 34H48.665L48.7822 33.2236C49.2363 33.2236 49.5293 33.0869 49.6611 32.8135C49.7637 32.5938 49.8149 32.1177 49.8149 31.3853V24.0024C49.8149 23.4995 49.749 23.1675 49.6172 23.0063C49.4658 22.855 49.1265 22.7793 48.5991 22.7793H48.416L48.5039 21.9443L51.4409 21.5122C51.3335 21.981 51.2798 23.2261 51.2798 25.2476V26.4634ZM63.1816 32.8574C64.1484 32.7939 65.0005 32.562 65.7378 32.1616L66.0601 32.7769C65.3228 33.3872 64.4829 33.8047 63.5405 34.0293C63.2573 34.0928 62.9985 34.1245 62.7642 34.1245C60.9233 34.1245 59.7637 33.3115 59.2852 31.6855C59.1289 31.1631 59.0508 30.5552 59.0508 29.8618C59.0508 29.1636 59.1631 28.5215 59.3877 27.9355C59.6172 27.3496 59.9175 26.8516 60.2886 26.4414C60.6646 26.0264 61.0942 25.7065 61.5776 25.4819C62.061 25.2573 62.5615 25.145 63.0791 25.145C65.1543 25.145 66.1919 26.3315 66.1919 28.7046V28.7778C66.1919 29.3979 66.1187 29.708 65.9722 29.708H60.5815C60.5815 30.7285 60.8062 31.5049 61.2554 32.0371C61.7095 32.5693 62.3516 32.8428 63.1816 32.8574ZM64.522 28.7705C64.5269 28.668 64.5293 28.5898 64.5293 28.5361V28.2944C64.5293 27.147 64.2119 26.4414 63.5771 26.1777C63.3477 26.0801 63.1011 26.0312 62.8374 26.0312C62.5786 26.0312 62.3589 26.0703 62.1782 26.1484C61.9976 26.2266 61.8267 26.334 61.6655 26.4707C61.5093 26.6074 61.3652 26.7686 61.2334 26.9541C61.1016 27.1348 60.9868 27.335 60.8892 27.5547C60.6841 28.0088 60.5815 28.4727 60.5815 28.9463L64.522 28.7705ZM75.9404 33.0259C76.0137 33.1138 76.1089 33.1699 76.2261 33.1943C76.3481 33.2139 76.5996 33.2236 76.9805 33.2236C77.3613 33.2236 77.6592 33.1943 77.874 33.1357L77.8228 34H73.106L73.2085 33.2236C73.6382 33.2236 73.9141 33.1479 74.0361 32.9966C74.2559 32.7231 74.3657 32.2397 74.3657 31.5464V28.0161C74.3657 27.3569 74.2974 26.9492 74.1606 26.793C74.0093 26.6172 73.6772 26.5146 73.1646 26.4854L73.2671 25.5479L75.8965 25.1523C75.8477 25.5088 75.8232 25.9165 75.8232 26.3755C76.3359 25.8872 76.9365 25.5186 77.625 25.2695C77.8691 25.1865 78.1011 25.145 78.3208 25.145C79.2583 25.145 79.7271 25.5625 79.7271 26.3975C79.7271 26.8906 79.6562 27.4204 79.5146 27.9868C79.5049 28.0259 79.4976 28.0527 79.4927 28.0674C79.4878 28.0771 79.4854 28.0845 79.4854 28.0894H78.2622L78.3062 27.7451L78.3354 27.4521C78.3452 27.3594 78.3501 27.2617 78.3501 27.1592C78.3501 27.0566 78.3403 26.9541 78.3208 26.8516C78.3062 26.749 78.2744 26.6636 78.2256 26.5952C78.1377 26.4634 77.9888 26.3975 77.7788 26.3975C77.5688 26.3975 77.3687 26.4292 77.1782 26.4927C76.9927 26.5562 76.812 26.6318 76.6362 26.7197C76.2798 26.9053 76.0039 27.0957 75.8086 27.291L75.8232 27.2837L75.8306 32.1982C75.8306 32.6621 75.8672 32.938 75.9404 33.0259ZM89.4902 32.667L89.5488 32.6597H89.5854L89.5635 33.5679L87.4102 34.1245C87.2002 33.7974 87.061 33.4141 86.9927 32.9746C86.4653 33.4141 85.7744 33.7559 84.9199 34C84.627 34.083 84.3242 34.1245 84.0117 34.1245C83.7041 34.1245 83.3965 34.0732 83.0889 33.9707C82.7861 33.8682 82.5225 33.7119 82.2979 33.502C81.8242 33.0576 81.5874 32.4082 81.5874 31.5537L81.646 27.4155C81.646 26.9272 81.5703 26.6123 81.4189 26.4707C81.3066 26.3682 81.0747 26.2998 80.7231 26.2656L80.833 25.5479L83.3525 25.1377L83.2061 26.5C83.1035 27.4375 83.0522 28.8633 83.0522 30.7773C83.0522 31.5586 83.1621 32.1055 83.3818 32.418C83.5967 32.7354 83.9775 32.894 84.5244 32.894C85.0176 32.894 85.4448 32.8232 85.8062 32.6816C86.3823 32.4473 86.7461 32.2373 86.8975 32.0518L86.8828 32.0591V27.4888C86.8828 26.9761 86.7827 26.6465 86.5825 26.5C86.4263 26.3779 86.0771 26.312 85.5352 26.3022L85.645 25.5479L88.4795 25.1377C88.4648 25.3916 88.4502 25.6113 88.4355 25.7969L88.4062 26.2876C88.3965 26.4487 88.3867 26.5952 88.377 26.7271C88.3672 26.854 88.3599 26.9883 88.355 27.1299C88.3452 27.4131 88.3403 27.7964 88.3403 28.2798V31.7661C88.3403 32.2349 88.3794 32.5205 88.4575 32.623C88.5405 32.7256 88.6162 32.7817 88.6846 32.7915C88.7578 32.8013 88.8359 32.8062 88.9189 32.8062H88.9849C89.1362 32.8062 89.3047 32.7598 89.4902 32.667ZM93.5405 21.5122C93.438 22.0444 93.3867 23.1138 93.3867 24.7202V25.2476L93.4014 32.2568C93.4014 32.6572 93.4307 32.9062 93.4893 33.0039C93.582 33.1504 93.7456 33.2236 93.98 33.2236C94.3071 33.2236 94.5928 33.1968 94.8369 33.1431L94.7197 34H90.479L90.6035 33.2236C91.1113 33.2236 91.436 33.1675 91.5776 33.0552C91.7241 32.9429 91.8169 32.8281 91.856 32.7109C91.8999 32.5889 91.9219 32.4399 91.9219 32.2642V24.0024C91.9219 23.5874 91.895 23.3286 91.8413 23.2261C91.7925 23.1235 91.7461 23.0479 91.7021 22.999C91.6631 22.9453 91.5996 22.9038 91.5117 22.8745C91.4287 22.8403 91.3311 22.8184 91.2188 22.8086C91.0625 22.7891 90.8037 22.7793 90.4424 22.7793L90.5303 21.9443L93.5405 21.5122ZM100.008 32.8574C100.975 32.7939 101.827 32.562 102.564 32.1616L102.886 32.7769C102.149 33.3872 101.309 33.8047 100.367 34.0293C100.083 34.0928 99.8247 34.1245 99.5903 34.1245C97.7495 34.1245 96.5898 33.3115 96.1113 31.6855C95.9551 31.1631 95.877 30.5552 95.877 29.8618C95.877 29.1636 95.9893 28.5215 96.2139 27.9355C96.4434 27.3496 96.7437 26.8516 97.1147 26.4414C97.4907 26.0264 97.9204 25.7065 98.4038 25.4819C98.8872 25.2573 99.3877 25.145 99.9053 25.145C101.98 25.145 103.018 26.3315 103.018 28.7046V28.7778C103.018 29.3979 102.945 29.708 102.798 29.708H97.4077C97.4077 30.7285 97.6323 31.5049 98.0815 32.0371C98.5356 32.5693 99.1777 32.8428 100.008 32.8574ZM101.348 28.7705C101.353 28.668 101.355 28.5898 101.355 28.5361V28.2944C101.355 27.147 101.038 26.4414 100.403 26.1777C100.174 26.0801 99.9272 26.0312 99.6636 26.0312C99.4048 26.0312 99.1851 26.0703 99.0044 26.1484C98.8237 26.2266 98.6528 26.334 98.4917 26.4707C98.3354 26.6074 98.1914 26.7686 98.0596 26.9541C97.9277 27.1348 97.813 27.335 97.7153 27.5547C97.5103 28.0088 97.4077 28.4727 97.4077 28.9463L101.348 28.7705ZM110.276 25.2036C110.291 25.2915 110.298 25.4502 110.298 25.6797C110.298 25.9092 110.271 26.1924 110.218 26.5293L110.064 27.562H109.156C109.146 26.9858 109.017 26.583 108.768 26.3535C108.514 26.1191 108.106 26.002 107.544 26.002C106.89 26.002 106.463 26.2217 106.263 26.6611C106.199 26.8125 106.167 26.9883 106.167 27.1885C106.167 27.3838 106.214 27.5571 106.307 27.7085C106.404 27.8599 106.531 27.999 106.688 28.126C106.941 28.3311 107.247 28.5117 107.603 28.668L108.475 29.0562C109.944 29.7397 110.689 30.5552 110.708 31.5024C110.718 32.3032 110.408 32.9478 109.778 33.436C109.207 33.8853 108.514 34.1099 107.698 34.1099C107.308 34.1099 106.89 34.0635 106.446 33.9707C105.738 33.8291 105.33 33.7583 105.223 33.7583H104.944C104.871 33.7583 104.808 33.7632 104.754 33.7729C104.773 32.8452 104.82 32.0835 104.893 31.4878H105.845C105.87 32.0884 106.031 32.5278 106.329 32.8062C106.631 33.0845 107.11 33.2236 107.764 33.2236C108.506 33.2236 108.973 33.0137 109.163 32.5938C109.231 32.4424 109.266 32.2446 109.266 32.0005C109.266 31.7515 109.2 31.5366 109.068 31.356C108.941 31.1753 108.78 31.0215 108.584 30.8945C108.394 30.7676 108.184 30.6577 107.955 30.5649C107.73 30.4722 107.493 30.3696 107.244 30.2573C107 30.1401 106.729 30.0034 106.431 29.8472C106.138 29.6909 105.872 29.5078 105.633 29.2979C105.086 28.8145 104.808 28.2358 104.798 27.562C104.788 26.8101 105.11 26.207 105.765 25.7529C106.355 25.3477 107.051 25.145 107.852 25.145C108.077 25.145 108.311 25.1646 108.555 25.2036C109.014 25.2769 109.339 25.3135 109.529 25.3135C109.72 25.3135 109.969 25.2769 110.276 25.2036Z" fill="white"/>
</svg>
