<svg width="25" height="25" viewBox="0 0 25 25" fill="none" xmlns="http://www.w3.org/2000/svg">
<path d="M12.5 2.08333C11.9247 2.08333 11.4583 2.5497 11.4583 3.12499V4.16666C11.4583 4.74196 11.9247 5.20833 12.5 5.20833C13.0753 5.20833 13.5416 4.74196 13.5416 4.16666V3.12499C13.5416 2.5497 13.0753 2.08333 12.5 2.08333Z" fill="white"/>
<path d="M7.34396 7.34464C6.93716 7.75143 6.27761 7.75143 5.87082 7.34464L5.13425 6.60807C4.72745 6.20127 4.72745 5.54172 5.13425 5.13493C5.54104 4.72813 6.20059 4.72813 6.60739 5.13493L7.34396 5.8715C7.75075 6.27829 7.75075 6.93784 7.34396 7.34464Z" fill="white"/>
<path d="M19.8657 5.13517C19.4589 4.72837 18.7994 4.72837 18.3926 5.13517L17.656 5.87173C17.2492 6.27853 17.2492 6.93808 17.656 7.34487C18.0628 7.75167 18.7224 7.75167 19.1292 7.34487L19.8657 6.6083C20.2725 6.20151 20.2725 5.54196 19.8657 5.13517Z" fill="white"/>
<path d="M7.33176 11.8516C7.6517 9.28065 9.84278 7.29166 12.5 7.29166C15.1572 7.29166 17.3483 9.28065 17.6683 11.8516C17.7919 12.8452 16.9692 13.5417 16.1458 13.5417H8.85418C8.03084 13.5417 7.20811 12.8452 7.33176 11.8516Z" fill="white"/>
<path d="M21.875 11.4583C22.4503 11.4583 22.9166 11.9247 22.9166 12.5C22.9166 13.0753 22.4503 13.5417 21.875 13.5417H20.8333C20.258 13.5417 19.7916 13.0753 19.7916 12.5C19.7916 11.9247 20.258 11.4583 20.8333 11.4583H21.875Z" fill="white"/>
<path d="M5.20831 12.5C5.20831 11.9247 4.74194 11.4583 4.16665 11.4583H3.12498C2.54968 11.4583 2.08331 11.9247 2.08331 12.5C2.08331 13.0753 2.54968 13.5417 3.12498 13.5417H4.16665C4.74194 13.5417 5.20831 13.0753 5.20831 12.5Z" fill="white"/>
<path d="M20.8334 16.6667C20.8334 16.0914 20.367 15.625 19.7917 15.625H5.20835C4.63306 15.625 4.16669 16.0914 4.16669 16.6667C4.16669 17.242 4.63306 17.7083 5.20835 17.7083L19.7917 17.7083C20.367 17.7083 20.8334 17.242 20.8334 16.6667Z" fill="white"/>
<path d="M16.6667 20.8333C16.6667 20.258 16.2003 19.7917 15.625 19.7917L9.37502 19.7917C8.79972 19.7917 8.33335 20.258 8.33335 20.8333C8.33335 21.4086 8.79972 21.875 9.37502 21.875H15.625C16.2003 21.875 16.6667 21.4086 16.6667 20.8333Z" fill="white"/>
</svg>
